<?xml version="1.0" standalone="no"?>
<!DOCTYPE svg PUBLIC "-//W3C//DTD SVG 20010904//EN"
 "http://www.w3.org/TR/2001/REC-SVG-20010904/DTD/svg10.dtd">
<svg version="1.0" xmlns="http://www.w3.org/2000/svg"
 width="2560.000000pt" height="2560.000000pt" viewBox="0 0 2560.000000 2560.000000"
 preserveAspectRatio="xMidYMid meet">
<metadata>
Created by potrace 1.14, written by Peter Selinger 2001-2017
</metadata>
<g transform="translate(0.000000,2560.000000) scale(0.100000,-0.100000)"
fill="#000000" stroke="none">
<path d="M6530 21215 c-62 -20 -128 -79 -156 -139 l-24 -51 0 -1021 c0 -1132
-4 -1071 66 -1153 54 -62 110 -91 192 -98 122 -10 224 44 274 145 l23 47 3
1019 c3 1119 5 1078 -57 1163 -60 82 -211 124 -321 88z"/>
<path d="M8720 21210 c-64 -22 -137 -93 -160 -156 -12 -33 -15 -195 -18 -1013
-2 -639 1 -993 8 -1029 27 -145 132 -249 264 -259 119 -10 221 47 267 149 l24
53 0 1035 c0 1033 0 1035 -21 1080 -62 132 -216 191 -364 140z"/>
<path d="M16674 21212 c-92 -32 -154 -101 -174 -195 -7 -36 -10 -363 -8 -1047
l3 -995 33 -67 c65 -132 199 -188 348 -143 67 20 117 64 151 133 l28 57 0
1020 c0 1158 5 1085 -79 1171 -78 80 -190 105 -302 66z"/>
<path d="M18873 21211 c-74 -25 -117 -63 -150 -128 l-28 -58 0 -1020 0 -1020
27 -57 c29 -63 90 -127 144 -153 122 -57 285 -10 351 103 l28 47 3 1048 2
1047 -21 51 c-55 128 -212 190 -356 140z"/>
<path d="M4494 20259 c-88 -15 -206 -57 -279 -99 -202 -119 -333 -283 -402
-505 l-28 -90 -3 -1112 -3 -1113 9021 0 9021 0 -3 1113 -3 1112 -22 80 c-48
172 -163 347 -294 448 -79 60 -179 111 -284 144 l-90 28 -652 3 -653 3 0 -628
c0 -366 -4 -664 -10 -713 -37 -305 -203 -538 -473 -665 -279 -132 -621 -96
-870 91 -110 82 -190 180 -252 309 -86 177 -85 163 -85 936 l0 669 -270 0
-269 0 -4 -702 c-3 -767 0 -726 -63 -878 -41 -98 -105 -188 -191 -271 -168
-160 -349 -231 -588 -231 -254 1 -451 85 -623 266 -90 96 -156 214 -194 351
-22 79 -22 91 -26 773 l-3 692 -3114 0 -3115 0 0 -662 c0 -408 -4 -688 -10
-727 -14 -85 -44 -170 -94 -266 -53 -103 -197 -252 -303 -314 -238 -140 -563
-152 -808 -29 -213 107 -370 293 -442 523 l-28 90 -3 693 -3 692 -264 0 -264
0 -4 -677 c-3 -582 -6 -688 -20 -747 -57 -237 -187 -424 -376 -536 -145 -86
-280 -122 -456 -122 -385 1 -711 256 -817 637 -22 78 -22 93 -26 763 l-3 682
-602 -1 c-331 -1 -625 -5 -653 -10z"/>
<path d="M3782 10923 l3 -5858 28 -90 c103 -329 354 -544 694 -594 50 -8 2101
-11 6802 -11 l6731 0 0 1763 c0 1946 -4 1821 63 1908 17 23 57 56 87 73 l55
31 1788 3 1787 2 0 4315 0 4315 -9020 0 -9020 0 2 -5857z m4058 3291 c61 -29
103 -71 136 -135 23 -44 28 -67 28 -124 0 -115 -61 -207 -169 -257 l-50 -23
-491 0 -490 0 -60 30 c-134 69 -183 235 -111 375 37 74 83 115 159 141 49 17
88 19 528 16 462 -2 476 -3 520 -23z m3628 11 c71 -21 131 -70 167 -135 27
-49 30 -64 30 -140 0 -71 -4 -93 -25 -134 -28 -55 -66 -90 -130 -120 -44 -20
-59 -21 -540 -21 l-495 0 -52 24 c-232 104 -207 462 35 527 34 9 169 13 503
13 380 1 464 -2 507 -14z m3694 -7 c57 -26 123 -93 148 -151 61 -140 -3 -305
-143 -368 l-52 -24 -485 0 c-471 0 -486 1 -530 21 -104 48 -160 126 -168 233
-5 78 6 122 48 179 38 53 90 92 153 114 48 16 90 18 522 15 415 -2 474 -4 507
-19z m3636 7 c111 -33 188 -131 199 -251 10 -119 -68 -242 -179 -281 -49 -16
-93 -18 -528 -18 l-475 0 -55 26 c-97 46 -154 124 -167 227 -14 122 81 257
211 298 65 20 924 19 994 -1z m-6618 -2696 c61 -27 106 -73 141 -142 60 -117
49 -208 -36 -293 -32 -33 -67 -56 -98 -67 -73 -25 -248 -121 -372 -205 -326
-220 -751 -597 -1132 -1002 -110 -116 -191 -194 -218 -209 -82 -44 -187 -38
-268 15 -44 29 -596 759 -615 813 -7 19 -12 67 -12 107 0 62 5 81 33 135 37
72 74 102 156 125 71 21 152 14 217 -19 61 -31 62 -32 229 -262 76 -104 145
-198 154 -207 15 -17 28 -7 196 160 369 365 712 647 1050 862 119 76 321 184
375 201 51 15 153 9 200 -12z m-4345 -697 c106 -49 168 -144 169 -262 1 -108
-62 -207 -163 -254 -45 -21 -58 -21 -541 -21 l-495 0 -53 24 c-207 93 -198
430 14 512 65 24 128 27 564 26 452 -2 455 -2 505 -25z m7332 -1 c219 -98 221
-407 4 -514 -46 -22 -48 -22 -541 -22 l-495 0 -51 27 c-53 28 -102 76 -131
131 -26 47 -25 179 2 232 39 79 128 148 215 166 19 4 240 7 490 6 l455 -2 52
-24z m3592 19 c151 -28 235 -129 236 -280 0 -66 -4 -82 -31 -130 -37 -66 -97
-114 -166 -135 -75 -22 -930 -22 -1005 0 -147 44 -234 199 -189 341 29 93 125
180 223 203 53 12 868 13 932 1z m-10937 -3396 c132 -45 213 -202 174 -337
-21 -74 -69 -133 -136 -171 l-55 -31 -489 -3 c-551 -3 -553 -3 -632 70 -60 56
-87 130 -82 223 3 39 13 86 22 105 35 68 107 130 176 151 14 4 239 8 501 8
405 1 482 -1 521 -15z m3688 -8 c177 -94 213 -314 75 -453 -86 -85 -80 -84
-646 -81 l-484 3 -49 25 c-91 46 -139 131 -140 245 -1 86 34 166 96 219 76 66
70 65 618 63 461 -2 497 -3 530 -21z m3645 7 c68 -23 137 -93 161 -164 46
-137 -5 -277 -127 -344 l-54 -30 -484 -3 c-548 -3 -548 -3 -629 72 -151 139
-109 372 83 462 l50 24 476 0 c418 0 481 -2 524 -17z"/>
<path d="M18610 6068 l0 -1522 426 432 c234 237 918 922 1521 1522 l1097 1090
-1522 0 -1522 0 0 -1522z"/>
</g>
</svg>
